<mxfile host="app.diagrams.net" agent="Mozilla/5.0 (Windows NT 10.0; Win64; x64) AppleWebKit/537.36 (KHTML, like Gecko) Chrome/140.0.0.0 Safari/537.36 Edg/140.0.0.0" version="28.2.3">
  <diagram name="1 oldal" id="WHaW6EbZxiReuUSH6q5l">
    <mxGraphModel dx="978" dy="542" grid="1" gridSize="10" guides="1" tooltips="1" connect="1" arrows="1" fold="1" page="1" pageScale="1" pageWidth="827" pageHeight="1169" math="0" shadow="0">
      <root>
        <mxCell id="0" />
        <mxCell id="1" parent="0" />
        <mxCell id="aQVWFm8Lheq-TPfID-P6-27" style="edgeStyle=orthogonalEdgeStyle;rounded=0;orthogonalLoop=1;jettySize=auto;html=1;exitX=0.5;exitY=1;exitDx=0;exitDy=0;entryX=0.5;entryY=1;entryDx=0;entryDy=0;" edge="1" parent="1" source="aQVWFm8Lheq-TPfID-P6-3" target="aQVWFm8Lheq-TPfID-P6-26">
          <mxGeometry relative="1" as="geometry" />
        </mxCell>
        <mxCell id="aQVWFm8Lheq-TPfID-P6-3" value="XY_orarend" style="ellipse;whiteSpace=wrap;html=1;" vertex="1" parent="1">
          <mxGeometry x="366" y="10" width="96" height="50" as="geometry" />
        </mxCell>
        <mxCell id="aQVWFm8Lheq-TPfID-P6-4" value="ora" style="ellipse;whiteSpace=wrap;html=1;" vertex="1" parent="1">
          <mxGeometry x="389" y="100" width="50" height="30" as="geometry" />
        </mxCell>
        <mxCell id="aQVWFm8Lheq-TPfID-P6-6" value="tárgy" style="rounded=0;whiteSpace=wrap;html=1;" vertex="1" parent="1">
          <mxGeometry x="270" y="171" width="50" height="40" as="geometry" />
        </mxCell>
        <mxCell id="aQVWFm8Lheq-TPfID-P6-15" style="edgeStyle=orthogonalEdgeStyle;rounded=0;orthogonalLoop=1;jettySize=auto;html=1;exitX=0.5;exitY=1;exitDx=0;exitDy=0;entryX=0.5;entryY=0;entryDx=0;entryDy=0;" edge="1" parent="1" source="aQVWFm8Lheq-TPfID-P6-7" target="aQVWFm8Lheq-TPfID-P6-8">
          <mxGeometry relative="1" as="geometry">
            <Array as="points">
              <mxPoint x="414" y="230" />
              <mxPoint x="355" y="230" />
            </Array>
          </mxGeometry>
        </mxCell>
        <mxCell id="aQVWFm8Lheq-TPfID-P6-16" style="edgeStyle=orthogonalEdgeStyle;rounded=0;orthogonalLoop=1;jettySize=auto;html=1;exitX=0.5;exitY=1;exitDx=0;exitDy=0;entryX=0.5;entryY=0;entryDx=0;entryDy=0;" edge="1" parent="1" source="aQVWFm8Lheq-TPfID-P6-7" target="aQVWFm8Lheq-TPfID-P6-9">
          <mxGeometry relative="1" as="geometry" />
        </mxCell>
        <mxCell id="aQVWFm8Lheq-TPfID-P6-17" style="edgeStyle=orthogonalEdgeStyle;rounded=0;orthogonalLoop=1;jettySize=auto;html=1;exitX=0.5;exitY=1;exitDx=0;exitDy=0;entryX=0.5;entryY=0;entryDx=0;entryDy=0;" edge="1" parent="1" source="aQVWFm8Lheq-TPfID-P6-7" target="aQVWFm8Lheq-TPfID-P6-10">
          <mxGeometry relative="1" as="geometry">
            <Array as="points">
              <mxPoint x="414" y="230" />
              <mxPoint x="475" y="230" />
            </Array>
          </mxGeometry>
        </mxCell>
        <mxCell id="aQVWFm8Lheq-TPfID-P6-7" value="idopont" style="ellipse;whiteSpace=wrap;html=1;" vertex="1" parent="1">
          <mxGeometry x="389" y="176" width="50" height="30" as="geometry" />
        </mxCell>
        <mxCell id="aQVWFm8Lheq-TPfID-P6-8" value="nap" style="ellipse;whiteSpace=wrap;html=1;" vertex="1" parent="1">
          <mxGeometry x="330" y="250" width="50" height="30" as="geometry" />
        </mxCell>
        <mxCell id="aQVWFm8Lheq-TPfID-P6-9" value="tól" style="ellipse;whiteSpace=wrap;html=1;" vertex="1" parent="1">
          <mxGeometry x="389" y="250" width="50" height="30" as="geometry" />
        </mxCell>
        <mxCell id="aQVWFm8Lheq-TPfID-P6-10" value="ig" style="ellipse;whiteSpace=wrap;html=1;" vertex="1" parent="1">
          <mxGeometry x="450" y="250" width="50" height="30" as="geometry" />
        </mxCell>
        <mxCell id="aQVWFm8Lheq-TPfID-P6-11" value="helyszin" style="rounded=0;whiteSpace=wrap;html=1;" vertex="1" parent="1">
          <mxGeometry x="330" y="171" width="50" height="40" as="geometry" />
        </mxCell>
        <mxCell id="aQVWFm8Lheq-TPfID-P6-13" value="oktato" style="rounded=0;whiteSpace=wrap;html=1;" vertex="1" parent="1">
          <mxGeometry x="450" y="171" width="50" height="40" as="geometry" />
        </mxCell>
        <mxCell id="aQVWFm8Lheq-TPfID-P6-14" value="szak" style="rounded=0;whiteSpace=wrap;html=1;" vertex="1" parent="1">
          <mxGeometry x="510" y="171" width="50" height="40" as="geometry" />
        </mxCell>
        <mxCell id="aQVWFm8Lheq-TPfID-P6-30" style="edgeStyle=orthogonalEdgeStyle;rounded=0;orthogonalLoop=1;jettySize=auto;html=1;exitX=0.5;exitY=0;exitDx=0;exitDy=0;entryX=0.5;entryY=0;entryDx=0;entryDy=0;" edge="1" parent="1" source="aQVWFm8Lheq-TPfID-P6-26" target="aQVWFm8Lheq-TPfID-P6-7">
          <mxGeometry relative="1" as="geometry" />
        </mxCell>
        <mxCell id="aQVWFm8Lheq-TPfID-P6-31" style="edgeStyle=orthogonalEdgeStyle;rounded=0;orthogonalLoop=1;jettySize=auto;html=1;exitX=0.5;exitY=0;exitDx=0;exitDy=0;" edge="1" parent="1" source="aQVWFm8Lheq-TPfID-P6-26" target="aQVWFm8Lheq-TPfID-P6-13">
          <mxGeometry relative="1" as="geometry">
            <Array as="points">
              <mxPoint x="414" y="150" />
              <mxPoint x="475" y="150" />
            </Array>
          </mxGeometry>
        </mxCell>
        <mxCell id="aQVWFm8Lheq-TPfID-P6-32" style="edgeStyle=orthogonalEdgeStyle;rounded=0;orthogonalLoop=1;jettySize=auto;html=1;exitX=0.5;exitY=0;exitDx=0;exitDy=0;entryX=0.5;entryY=0;entryDx=0;entryDy=0;" edge="1" parent="1" source="aQVWFm8Lheq-TPfID-P6-26" target="aQVWFm8Lheq-TPfID-P6-14">
          <mxGeometry relative="1" as="geometry">
            <Array as="points">
              <mxPoint x="414" y="150" />
              <mxPoint x="535" y="150" />
            </Array>
          </mxGeometry>
        </mxCell>
        <mxCell id="aQVWFm8Lheq-TPfID-P6-34" style="edgeStyle=orthogonalEdgeStyle;rounded=0;orthogonalLoop=1;jettySize=auto;html=1;exitX=0.5;exitY=0;exitDx=0;exitDy=0;entryX=0.5;entryY=0;entryDx=0;entryDy=0;" edge="1" parent="1" source="aQVWFm8Lheq-TPfID-P6-26" target="aQVWFm8Lheq-TPfID-P6-11">
          <mxGeometry relative="1" as="geometry">
            <Array as="points">
              <mxPoint x="414" y="150" />
              <mxPoint x="355" y="150" />
            </Array>
          </mxGeometry>
        </mxCell>
        <mxCell id="aQVWFm8Lheq-TPfID-P6-35" style="edgeStyle=orthogonalEdgeStyle;rounded=0;orthogonalLoop=1;jettySize=auto;html=1;exitX=0.5;exitY=0;exitDx=0;exitDy=0;entryX=0.5;entryY=0;entryDx=0;entryDy=0;" edge="1" parent="1" source="aQVWFm8Lheq-TPfID-P6-26" target="aQVWFm8Lheq-TPfID-P6-6">
          <mxGeometry relative="1" as="geometry">
            <Array as="points">
              <mxPoint x="414" y="150" />
              <mxPoint x="295" y="150" />
            </Array>
          </mxGeometry>
        </mxCell>
        <mxCell id="aQVWFm8Lheq-TPfID-P6-26" value="" style="ellipse;whiteSpace=wrap;html=1;fillColor=none;direction=west;" vertex="1" parent="1">
          <mxGeometry x="384" y="95" width="60" height="40" as="geometry" />
        </mxCell>
      </root>
    </mxGraphModel>
  </diagram>
</mxfile>
